# Blender 4.4.1
# www.blender.org
mtllib card_stack.mtl
o Cube.001
v 0.115528 0.099634 -0.214610
v 0.115528 -0.000000 -0.214610
v 0.115528 0.099634 0.214610
v 0.115528 0.000000 0.214610
v -0.115528 0.099634 -0.214610
v -0.115528 -0.000000 -0.214610
v -0.115528 0.099634 0.214610
v -0.115528 0.000000 0.214610
vn -0.0000 -1.0000 -0.0000
vn -0.0000 -0.0000 -1.0000
vn 1.0000 -0.0000 -0.0000
vn -0.0000 1.0000 -0.0000
vn -1.0000 -0.0000 -0.0000
vn -0.0000 -0.0000 1.0000
vt 0.005914 0.003937
vt 0.005914 0.997095
vt 0.996701 0.997095
vt 0.384260 0.508276
vt 0.384260 0.511404
vt 0.390858 0.511404
vt 0.384260 0.498891
vt 0.384260 0.502020
vt 0.390858 0.502020
vt 0.256688 0.638378
vt 0.256688 0.631669
vt 0.257062 0.631669
vt 0.384260 0.505148
vt 0.390858 0.508276
vt 0.390858 0.505148
vt 0.996701 0.003937
vt 0.390858 0.498891
vt 0.257062 0.638378
s 1
usemtl Material.001
f 1/1/1 3/2/1 7/3/1
f 4/4/2 8/5/2 7/6/2
f 8/7/3 6/8/3 5/9/3
f 6/10/4 8/11/4 4/12/4
f 2/13/5 4/4/5 3/14/5
f 6/8/6 2/13/6 1/15/6
f 1/1/1 7/3/1 5/16/1
f 4/4/2 7/6/2 3/14/2
f 8/7/3 5/9/3 7/17/3
f 6/10/4 4/12/4 2/18/4
f 2/13/5 3/14/5 1/15/5
f 6/8/6 1/15/6 5/9/6
