# Blender 4.4.0
# www.blender.org
mtllib door_closed.mtl
o Cube
v -0.500000 1.899098 -0.449549
v -0.500000 0.100902 -0.449549
v -0.500000 1.899098 0.449549
v -0.500000 0.100902 0.449549
v -0.500000 1.899098 -0.449549
v -0.500000 0.100902 -0.449549
v -0.500000 1.899098 0.449549
v -0.500000 0.100902 0.449549
v -0.500000 0.000000 -0.500000
v -0.500000 0.000000 0.500000
v 0.500000 2.000000 -0.500000
v 0.500000 0.000000 -0.500000
v -0.500000 2.000000 0.500000
v 0.500000 2.000000 0.500000
v 0.500000 0.000000 0.500000
v -0.500000 2.000000 -0.500000
v 0.709748 2.000000 -0.500000
v 0.709748 0.000000 -0.500000
v 0.709748 2.000000 0.500000
v 0.709748 0.000000 0.500000
v 0.709748 1.899098 -0.449549
v 0.709748 0.100902 -0.449549
v 0.709748 1.899098 0.449549
v 0.709748 0.100902 0.449549
v -0.736986 0.000000 -0.500000
v -0.736986 0.000000 0.500000
v -0.736986 2.000000 0.500000
v -0.736986 2.000000 -0.500000
v -0.736986 0.100902 -0.449549
v -0.736986 0.100902 0.449549
v -0.736986 1.899098 0.449549
v -0.736986 1.899098 -0.449549
v -0.228511 0.881873 -0.324712
v -0.228511 0.881873 -0.072178
v -0.228511 1.899098 -0.449549
v -0.228511 1.899098 0.449549
v 0.185371 0.897497 0.324421
v 0.185371 1.899098 -0.449549
v 0.185371 0.897497 0.098172
v 0.185371 1.899098 0.449549
v 0.185371 1.109803 0.098172
v -0.228511 1.125427 -0.324712
v -0.228511 1.125427 -0.072178
v 0.185371 1.109803 0.324421
v 0.185371 1.906399 -0.449549
v 0.185371 0.100902 -0.449549
v 0.185371 0.100902 0.449549
v 0.185371 1.906399 0.449549
v -0.228511 1.906399 -0.449549
v -0.228511 1.906399 0.449549
v -0.228511 0.100902 -0.449549
v -0.228511 0.100902 0.449549
vn -0.0000 -1.0000 -0.0000
vn -0.0000 -0.0000 -1.0000
vn -0.0000 1.0000 -0.0000
vn -0.0000 -0.0000 1.0000
vn -1.0000 -0.0000 -0.0000
vn 1.0000 -0.0000 -0.0000
vt 0.487961 0.500000
vt 0.463884 0.475923
vt 0.463884 0.500000
vt 0.512039 0.475923
vt 0.487961 0.451845
vt 0.487961 0.475923
vt 0.536116 0.500000
vt 0.512039 0.500000
vt 0.512039 0.524077
vt 0.487961 0.524077
vt 0.510824 0.525292
vt 0.489176 0.525292
vt 0.510824 0.477137
vt 0.489176 0.477137
vt 0.727906 0.539244
vt 0.727906 0.560892
vt 0.727906 0.491089
vt 0.727906 0.512737
vt 0.702614 0.489874
vt 0.702614 0.513952
vt 0.749554 0.512737
vt 0.749554 0.491089
vt 0.774846 0.513952
vt 0.774846 0.489874
vt 0.726691 0.513952
vt 0.726691 0.489874
vt 0.750769 0.513952
vt 0.750769 0.489874
vt 0.489176 0.498785
vt 0.510824 0.498785
vt 0.749554 0.560892
vt 0.750769 0.538029
vt 0.749554 0.539244
vt 0.750769 0.562107
vt 0.726691 0.538029
vt 0.726691 0.562107
vt 0.489176 0.546940
vt 0.510824 0.546940
vt 0.750769 0.465797
vt 0.726691 0.465797
vt 0.497744 0.163417
vt 0.062732 0.600917
vt 0.497744 0.600917
vt 0.545119 0.158868
vt 0.031204 0.614397
vt 0.545119 0.614397
vt 0.000000 0.000000
vt 0.206034 0.776944
vt 0.228270 0.794725
vt 0.228270 0.773077
vt 0.125505 0.790859
vt 0.103270 0.773077
vt 0.103270 0.794725
vt 0.125505 0.776944
vt 0.206034 0.790859
vt 0.249554 0.870345
vt 0.249554 0.887737
vt 0.249554 0.866089
vt 0.249554 0.883482
vt 0.249554 0.883482
vt 0.512039 0.451845
vt 0.536116 0.475923
vt 0.062732 0.163417
vt 0.031204 0.158868
s 0
usemtl Material
f 11/1/1 13/2/1 16/3/1
f 15/4/2 13/5/2 14/6/2
f 9/7/3 15/4/3 12/8/3
f 9/9/4 11/1/4 16/10/4
f 6/11/2 32/12/2 5/12/2
f 47/13/4 23/14/4 40/14/4
f 5/15/3 31/16/3 7/16/3
f 40/17/3 21/18/3 38/18/3
f 13/19/1 28/20/1 16/20/1
f 46/21/1 24/22/1 47/22/1
f 9/23/3 26/24/3 10/24/3
f 11/25/1 19/26/1 14/26/1
f 21/18/5 18/27/5 22/21/5
f 24/22/5 19/26/5 23/17/5
f 23/17/5 17/25/5 21/18/5
f 22/21/5 20/28/5 24/22/5
f 14/26/2 20/28/2 15/28/2
f 38/29/2 22/30/2 46/30/2
f 12/27/4 17/25/4 11/25/4
f 15/28/3 18/27/3 12/27/3
f 30/31/6 25/32/6 29/33/6
f 31/16/6 26/34/6 30/31/6
f 29/33/6 28/35/6 32/15/6
f 32/15/6 27/36/6 31/16/6
f 16/35/4 25/32/4 9/32/4
f 7/37/4 30/38/4 8/38/4
f 10/39/2 27/40/2 13/40/2
f 8/31/1 29/33/1 6/33/1
f 1/29/2 51/30/2 2/30/2
f 2/21/1 52/22/1 4/22/1
f 3/17/3 35/18/3 1/18/3
f 4/13/4 36/14/4 3/14/4
f 34/41/6 42/42/6 43/43/6
f 39/44/5 44/45/5 41/46/5
f 51/47/4 46/47/4 45/47/4 49/47/4
f 49/21/1 45/21/1 48/22/1 50/22/1
f 47/47/2 52/47/2 50/47/2 48/47/2
f 37/48/5 46/49/5 47/50/5
f 41/51/5 48/52/5 45/53/5
f 44/54/5 47/50/5 48/52/5
f 39/55/5 45/53/5 46/49/5
f 43/56/6 49/57/6 50/58/6
f 33/59/6 52/58/6 51/57/6
f 42/60/6 51/57/6 49/57/6
f 34/56/6 50/58/6 52/58/6
f 11/1/1 14/6/1 13/2/1
f 15/4/2 10/61/2 13/5/2
f 9/7/3 10/62/3 15/4/3
f 9/9/4 12/8/4 11/1/4
f 6/11/2 29/11/2 32/12/2
f 47/13/4 24/13/4 23/14/4
f 5/15/3 32/15/3 31/16/3
f 40/17/3 23/17/3 21/18/3
f 13/19/1 27/19/1 28/20/1
f 46/21/1 22/21/1 24/22/1
f 9/23/3 25/23/3 26/24/3
f 11/25/1 17/25/1 19/26/1
f 21/18/5 17/25/5 18/27/5
f 24/22/5 20/28/5 19/26/5
f 23/17/5 19/26/5 17/25/5
f 22/21/5 18/27/5 20/28/5
f 14/26/2 19/26/2 20/28/2
f 38/29/2 21/29/2 22/30/2
f 12/27/4 18/27/4 17/25/4
f 15/28/3 20/28/3 18/27/3
f 30/31/6 26/34/6 25/32/6
f 31/16/6 27/36/6 26/34/6
f 29/33/6 25/32/6 28/35/6
f 32/15/6 28/35/6 27/36/6
f 16/35/4 28/35/4 25/32/4
f 7/37/4 31/37/4 30/38/4
f 10/39/2 26/39/2 27/40/2
f 8/31/1 30/31/1 29/33/1
f 1/29/2 35/29/2 51/30/2
f 2/21/1 51/21/1 52/22/1
f 3/17/3 36/17/3 35/18/3
f 4/13/4 52/13/4 36/14/4
f 34/41/6 33/63/6 42/42/6
f 39/44/5 37/64/5 44/45/5
f 37/48/5 39/55/5 46/49/5
f 41/51/5 44/54/5 48/52/5
f 44/54/5 37/48/5 47/50/5
f 39/55/5 41/51/5 45/53/5
f 43/56/6 42/60/6 49/57/6
f 33/59/6 34/56/6 52/58/6
f 42/60/6 33/59/6 51/57/6
f 34/56/6 43/56/6 50/58/6
