# Blender 4.3.2
# www.blender.org
mtllib door_open.mtl
o Cube.001
v -0.500000 1.899098 -0.449549
v -0.500000 0.100902 -0.449549
v -0.500000 1.899098 0.449549
v -0.500000 0.100902 0.449549
v -0.500000 1.899098 -0.449549
v -0.500000 0.100902 -0.449549
v -0.500000 1.899098 0.449549
v -0.500000 0.100902 0.449549
v -0.500000 -0.000000 -0.500000
v -0.500000 0.000000 0.500000
v 0.500000 2.000000 -0.500000
v 0.500000 -0.000000 -0.500000
v -0.500000 2.000000 0.500000
v 0.500000 2.000000 0.500000
v 0.500000 0.000000 0.500000
v -0.500000 2.000000 -0.500000
v 0.709748 2.000000 -0.500000
v 0.709748 -0.000000 -0.500000
v 0.709748 2.000000 0.500000
v 0.709748 0.000000 0.500000
v 0.709748 1.899098 -0.449549
v 0.709748 0.100902 -0.449549
v 0.709748 1.899098 0.449549
v 0.709748 0.100902 0.449549
v -0.736986 -0.000000 -0.500000
v -0.736986 0.000000 0.500000
v -0.736986 2.000000 0.500000
v -0.736986 2.000000 -0.500000
v -0.736986 0.100902 -0.449549
v -0.736986 0.100902 0.449549
v -0.736986 1.899098 0.449549
v -0.736986 1.899098 -0.449549
vn -0.0000 -1.0000 -0.0000
vn -0.0000 -0.0000 -1.0000
vn -0.0000 1.0000 -0.0000
vn -0.0000 -0.0000 1.0000
vn -1.0000 -0.0000 -0.0000
vn 1.0000 -0.0000 -0.0000
vt 0.487961 0.475923
vt 0.463884 0.500000
vt 0.487961 0.500000
vt 0.512039 0.451845
vt 0.512039 0.475923
vt 0.536116 0.475923
vt 0.512039 0.500000
vt 0.536116 0.500000
vt 0.487961 0.524077
vt 0.512039 0.524077
vt 0.510824 0.525292
vt 0.489176 0.525292
vt 0.510824 0.477137
vt 0.489176 0.477137
vt 0.727906 0.539244
vt 0.727906 0.560892
vt 0.727906 0.491089
vt 0.727906 0.512737
vt 0.702614 0.489874
vt 0.702614 0.513952
vt 0.749554 0.512737
vt 0.749554 0.491089
vt 0.774846 0.513952
vt 0.774846 0.489874
vt 0.726691 0.513952
vt 0.726691 0.489874
vt 0.750769 0.513952
vt 0.750769 0.489874
vt 0.489176 0.498785
vt 0.510824 0.498785
vt 0.750769 0.562107
vt 0.749554 0.539244
vt 0.749554 0.560892
vt 0.726691 0.562107
vt 0.726691 0.538029
vt 0.750769 0.538029
vt 0.489176 0.546940
vt 0.510824 0.546940
vt 0.750769 0.465797
vt 0.726691 0.465797
vt 0.463884 0.475923
vt 0.487961 0.451845
s 1
usemtl Material.001
f 14/1/1 16/2/1 11/3/1
f 10/4/2 14/1/2 15/5/2
f 10/6/3 12/7/3 9/8/3
f 12/7/4 16/9/4 9/10/4
f 29/11/2 5/12/2 6/11/2
f 24/13/4 3/14/4 4/13/4
f 32/15/3 7/16/3 5/15/3
f 23/17/3 1/18/3 3/17/3
f 27/19/1 16/20/1 13/19/1
f 22/21/1 4/22/1 2/21/1
f 25/23/3 10/24/3 9/23/3
f 17/25/1 14/26/1 11/25/1
f 17/25/5 22/21/5 21/18/5
f 24/22/5 19/26/5 23/17/5
f 19/26/5 21/18/5 23/17/5
f 18/27/5 24/22/5 22/21/5
f 19/26/2 15/28/2 14/26/2
f 21/29/2 2/30/2 1/29/2
f 18/27/4 11/25/4 12/27/4
f 20/28/3 12/27/3 15/28/3
f 26/31/6 29/32/6 30/33/6
f 27/34/6 30/33/6 31/16/6
f 29/32/6 28/35/6 32/15/6
f 28/35/6 31/16/6 32/15/6
f 28/35/4 9/36/4 16/35/4
f 31/37/4 8/38/4 7/37/4
f 26/39/2 13/40/2 10/39/2
f 30/33/1 6/32/1 8/33/1
f 14/1/1 13/41/1 16/2/1
f 10/4/2 13/42/2 14/1/2
f 10/6/3 15/5/3 12/7/3
f 12/7/4 11/3/4 16/9/4
f 29/11/2 32/12/2 5/12/2
f 24/13/4 23/14/4 3/14/4
f 32/15/3 31/16/3 7/16/3
f 23/17/3 21/18/3 1/18/3
f 27/19/1 28/20/1 16/20/1
f 22/21/1 24/22/1 4/22/1
f 25/23/3 26/24/3 10/24/3
f 17/25/1 19/26/1 14/26/1
f 17/25/5 18/27/5 22/21/5
f 24/22/5 20/28/5 19/26/5
f 19/26/5 17/25/5 21/18/5
f 18/27/5 20/28/5 24/22/5
f 19/26/2 20/28/2 15/28/2
f 21/29/2 22/30/2 2/30/2
f 18/27/4 17/25/4 11/25/4
f 20/28/3 18/27/3 12/27/3
f 26/31/6 25/36/6 29/32/6
f 27/34/6 26/31/6 30/33/6
f 29/32/6 25/36/6 28/35/6
f 28/35/6 27/34/6 31/16/6
f 28/35/4 25/36/4 9/36/4
f 31/37/4 30/38/4 8/38/4
f 26/39/2 27/40/2 13/40/2
f 30/33/1 29/32/1 6/32/1
