# Blender 4.4.1
# www.blender.org
mtllib lightbulb.mtl
o Cube
v 0.160612 -0.000000 -0.160612
v 0.160612 -0.330926 -0.160612
v 0.160612 0.000000 0.160612
v 0.160612 -0.330926 0.160612
v -0.160612 -0.000000 -0.160612
v -0.160612 -0.330926 -0.160612
v -0.160612 0.000000 0.160612
v -0.160612 -0.330926 0.160612
v -0.300534 -0.441192 -0.300534
v -0.300534 -0.441192 0.300534
v 0.300534 -0.441192 -0.300534
v 0.300534 -0.441192 0.300534
v -0.168328 -0.558886 -0.168328
v -0.168328 -0.558886 0.168328
v 0.168328 -0.558886 -0.168328
v 0.168328 -0.558886 0.168328
v -0.300534 -0.558886 -0.300534
v -0.300534 -0.558886 0.300534
v 0.300534 -0.558886 -0.300534
v 0.300534 -0.558886 0.300534
v -0.168328 -0.658611 -0.168328
v -0.168328 -0.658611 0.168328
v 0.168328 -0.658611 -0.168328
v 0.168328 -0.658611 0.168328
vn -0.0000 -1.0000 -0.0000
vn -0.0000 -0.0000 -1.0000
vn 1.0000 -0.0000 -0.0000
vn -0.0000 -0.7854 0.6190
vn -1.0000 -0.0000 -0.0000
vn -0.0000 -0.0000 1.0000
vn -0.0000 -0.7854 -0.6190
vn 0.6190 -0.7854 -0.0000
vn -0.6190 -0.7854 -0.0000
vn -0.0000 1.0000 -0.0000
vt 0.147169 0.927700
vt 0.994582 0.080286
vt 0.147169 0.080286
vt 0.149630 0.008220
vt 0.591337 0.739030
vt 0.591337 0.288256
vt 0.145689 0.003220
vt 0.362991 0.994062
vt 0.364658 -0.001781
vt 0.034831 0.917014
vt 0.040941 0.917014
vt 0.147468 0.076067
vt 0.333410 0.735507
vt 0.333410 0.262009
vt 0.992850 0.076067
vt 0.806908 0.262009
vt 0.147468 0.921449
vt 0.806908 0.735507
vt 0.992850 0.921449
vt 0.034831 0.923124
vt 0.040941 0.923124
vt 0.994582 0.927700
vt 0.149630 0.992395
vt 0.147356 0.995729
s 1
usemtl Material.001
f 3/1/1 5/2/1 1/3/1
f 8/1/2 3/2/2 4/3/2
f 6/1/3 7/2/3 8/3/3
f 9/4/4 2/5/4 6/6/4
f 4/1/5 1/2/5 2/3/5
f 2/1/6 5/2/6 6/3/6
f 20/7/2 10/8/2 12/9/2
f 12/4/7 8/5/7 4/6/7
f 10/4/8 6/5/8 8/6/8
f 11/4/9 4/5/9 2/6/9
f 24/10/2 14/11/2 16/10/2
f 18/7/3 9/8/3 10/9/3
f 19/7/5 12/8/5 11/9/5
f 17/7/6 11/8/6 9/9/6
f 17/12/10 14/13/10 13/14/10
f 19/15/10 13/14/10 15/16/10
f 18/17/10 16/18/10 14/13/10
f 20/19/10 15/16/10 16/18/10
f 22/11/10 23/20/10 21/21/10
f 22/11/3 13/21/3 14/11/3
f 23/20/5 16/10/5 15/20/5
f 21/21/6 15/20/6 13/21/6
f 3/1/1 7/22/1 5/2/1
f 8/1/2 7/22/2 3/2/2
f 6/1/3 5/22/3 7/2/3
f 9/4/4 11/23/4 2/5/4
f 4/1/5 3/22/5 1/2/5
f 2/1/6 1/22/6 5/2/6
f 20/7/2 18/24/2 10/8/2
f 12/4/7 10/23/7 8/5/7
f 10/4/8 9/23/8 6/5/8
f 11/4/9 12/23/9 4/5/9
f 24/10/2 22/11/2 14/11/2
f 18/7/3 17/24/3 9/8/3
f 19/7/5 20/24/5 12/8/5
f 17/7/6 19/24/6 11/8/6
f 17/12/10 18/17/10 14/13/10
f 19/15/10 17/12/10 13/14/10
f 18/17/10 20/19/10 16/18/10
f 20/19/10 19/15/10 15/16/10
f 22/11/10 24/10/10 23/20/10
f 22/11/3 21/21/3 13/21/3
f 23/20/5 24/10/5 16/10/5
f 21/21/6 23/20/6 15/20/6
