# Blender 4.4.0
# www.blender.org
mtllib window.mtl
o Cube
v 0.433948 0.861919 -0.555411
v 0.433948 -1.000000 -0.644388
v 0.433948 0.861919 0.555411
v 0.433948 -1.000000 0.644388
v -0.433948 1.000000 -0.644388
v -0.433948 -1.000000 -0.644388
v -0.433948 1.000000 0.644388
v -0.433948 -1.000000 0.644388
v 0.433948 -0.554429 -0.555411
v -0.433948 -0.692510 0.644388
v 0.433948 -0.554429 0.555411
v -0.433948 -0.692510 -0.644388
v 0.433948 1.000000 -0.644388
v 0.433948 1.000000 0.644388
v 0.433948 -0.692510 -0.644388
v 0.433948 -0.692510 0.644388
v 0.267892 0.861919 -0.555411
v 0.267892 0.861919 0.555411
v 0.267892 -0.554429 -0.555411
v 0.267892 -0.554429 0.555411
v 0.760986 -0.692510 -0.644388
v 0.760986 -1.000000 -0.644388
v 0.760986 -0.692510 0.644388
v 0.760986 -1.000000 0.644388
vn -0.0000 -1.0000 -0.0000
vn -0.0000 -0.0000 -1.0000
vn 1.0000 -0.0000 -0.0000
vn -0.0000 1.0000 -0.0000
vn -0.0000 -0.0000 1.0000
vn -1.0000 -0.0000 -0.0000
vt 0.281836 0.542187
vt 0.361132 0.462891
vt 0.281836 0.462891
vt 0.214731 0.621484
vt 0.214731 0.542187
vt 0.214731 0.383594
vt 0.281836 0.304298
vt 0.214731 0.304298
vt 0.123243 0.542187
vt 0.202539 0.462891
vt 0.123243 0.462891
vt 0.711946 0.529615
vt 0.711946 0.314135
vt 0.214731 0.462891
vt 0.281836 0.383594
vt 0.202539 0.383594
vt 0.202539 0.304298
vt 0.202539 0.621484
vt 0.202539 0.542187
vt 0.906250 0.546875
vt 0.888990 0.314135
vt 0.888990 0.529615
vt 0.906250 0.296875
vt 0.694686 0.546875
vt 0.694686 0.296875
vt 0.489637 0.903191
vt 0.548799 0.831184
vt 0.489637 0.831184
vt 0.361132 0.542187
vt 0.281836 0.621484
vt 0.548799 0.903191
s 0
usemtl Material
f 14/1/1 5/2/1 13/3/1
f 10/4/2 14/1/2 16/5/2
f 12/6/3 7/7/3 10/8/3
f 8/9/4 2/10/4 6/11/4
f 20/12/1 9/13/1 11/12/1
f 15/14/5 5/15/5 12/6/5
f 2/10/5 12/6/5 6/16/5
f 21/14/1 16/5/1 15/14/1
f 6/16/3 10/8/3 8/17/3
f 8/18/2 16/5/2 4/19/2
f 14/20/6 1/21/6 3/22/6
f 13/23/6 9/13/6 1/21/6
f 16/24/6 3/22/6 11/12/6
f 15/25/6 11/12/6 9/13/6
f 20/26/6 17/27/6 19/28/6
f 19/13/2 1/21/2 9/13/2
f 18/22/5 11/12/5 3/22/5
f 17/21/4 3/22/4 1/21/4
f 24/19/6 21/14/6 22/10/6
f 23/5/2 4/19/2 16/5/2
f 22/10/5 15/14/5 2/10/5
f 24/19/4 2/10/4 4/19/4
f 14/1/1 7/29/1 5/2/1
f 10/4/2 7/30/2 14/1/2
f 12/6/3 5/15/3 7/7/3
f 8/9/4 4/19/4 2/10/4
f 20/12/1 19/13/1 9/13/1
f 15/14/5 13/3/5 5/15/5
f 2/10/5 15/14/5 12/6/5
f 21/14/1 23/5/1 16/5/1
f 6/16/3 12/6/3 10/8/3
f 8/18/2 10/4/2 16/5/2
f 14/20/6 13/23/6 1/21/6
f 13/23/6 15/25/6 9/13/6
f 16/24/6 14/20/6 3/22/6
f 15/25/6 16/24/6 11/12/6
f 20/26/6 18/31/6 17/27/6
f 19/13/2 17/21/2 1/21/2
f 18/22/5 20/12/5 11/12/5
f 17/21/4 18/22/4 3/22/4
f 24/19/6 23/5/6 21/14/6
f 23/5/2 24/19/2 4/19/2
f 22/10/5 21/14/5 15/14/5
f 24/19/4 22/10/4 2/10/4
