# Blender 4.4.1
# www.blender.org
mtllib window.mtl
o Cube
v 0.433948 0.861919 -0.555411
v 0.433948 -1.000000 -0.644388
v 0.433948 0.861919 0.555411
v 0.433948 -1.000000 0.644388
v -0.433948 1.000000 -0.644388
v -0.433948 -1.000000 -0.644388
v -0.433948 1.000000 0.644388
v -0.433948 -1.000000 0.644388
v 0.433948 -0.554429 -0.555411
v -0.433948 -0.692510 0.644388
v 0.433948 -0.554429 0.555411
v -0.433948 -0.692510 -0.644388
v 0.433948 1.000000 -0.644388
v 0.433948 1.000000 0.644388
v 0.433948 -0.692510 -0.644388
v 0.433948 -0.692510 0.644388
v 0.267892 0.861919 -0.555411
v 0.267892 0.861919 0.555411
v 0.267892 -0.554429 -0.555411
v 0.267892 -0.554429 0.555411
v 0.760986 -0.692510 -0.644388
v 0.760986 -1.000000 -0.644388
v 0.760986 -0.692510 0.644388
v 0.760986 -1.000000 0.644388
vn -0.0000 -1.0000 -0.0000
vn -0.0000 -0.0000 -1.0000
vn 1.0000 -0.0000 -0.0000
vn -0.0000 1.0000 -0.0000
vn -0.0000 -0.0000 1.0000
vn -1.0000 -0.0000 -0.0000
vt 0.004704 0.006166
vt 0.556425 0.745546
vt 0.556425 0.006166
vt 0.905288 0.742975
vt 0.646938 0.005763
vt 0.646938 0.742975
vt 0.756936 0.617975
vt 0.461300 0.988202
vt 0.520462 0.916195
vt 0.461300 0.916195
vt 0.004704 0.745546
vt 0.905288 0.005763
vt 0.756936 0.130763
vt 0.520462 0.988202
s 1
usemtl Material.004
f 14/1/1 5/2/1 13/3/1
f 10/1/2 14/2/2 16/3/2
f 12/1/3 7/2/3 10/3/3
f 8/1/4 2/2/4 6/3/4
f 20/4/1 9/5/1 11/6/1
f 15/1/5 5/2/5 12/3/5
f 2/1/5 12/2/5 6/3/5
f 21/1/1 16/2/1 15/3/1
f 6/1/3 10/2/3 8/3/3
f 8/1/2 16/2/2 4/3/2
f 14/7/6 1/5/6 3/6/6
f 13/7/6 9/5/6 1/6/6
f 16/7/6 3/5/6 11/6/6
f 15/7/6 11/5/6 9/6/6
f 20/8/6 17/9/6 19/10/6
f 19/4/2 1/5/2 9/6/2
f 18/4/5 11/5/5 3/6/5
f 17/4/4 3/5/4 1/6/4
f 24/1/6 21/2/6 22/3/6
f 23/1/2 4/2/2 16/3/2
f 22/1/5 15/2/5 2/3/5
f 24/1/4 2/2/4 4/3/4
f 14/1/1 7/11/1 5/2/1
f 10/1/2 7/11/2 14/2/2
f 12/1/3 5/11/3 7/2/3
f 8/1/4 4/11/4 2/2/4
f 20/4/1 19/12/1 9/5/1
f 15/1/5 13/11/5 5/2/5
f 2/1/5 15/11/5 12/2/5
f 21/1/1 23/11/1 16/2/1
f 6/1/3 12/11/3 10/2/3
f 8/1/2 10/11/2 16/2/2
f 14/7/6 13/13/6 1/5/6
f 13/7/6 15/13/6 9/5/6
f 16/7/6 14/13/6 3/5/6
f 15/7/6 16/13/6 11/5/6
f 20/8/6 18/14/6 17/9/6
f 19/4/2 17/12/2 1/5/2
f 18/4/5 20/12/5 11/5/5
f 17/4/4 18/12/4 3/5/4
f 24/1/6 23/11/6 21/2/6
f 23/1/2 24/11/2 4/2/2
f 22/1/5 21/11/5 15/2/5
f 24/1/4 22/11/4 2/2/4
